<?xml version="1.0" encoding="UTF-8"?>
<svg width="163px" height="180px" viewBox="0 0 163 180" version="1.1" xmlns="http://www.w3.org/2000/svg" xmlns:xlink="http://www.w3.org/1999/xlink" style="background: #FFFFFF;">
    <!-- Generator: Sketch 46.2 (44496) - http://www.bohemiancoding.com/sketch -->
    <title>franz-symbol-black</title>
    <desc>Created with Sketch.</desc>
    <defs></defs>
    <g id="Page-1" stroke="none" stroke-width="1" fill="none" fill-rule="evenodd">
        <g id="franz-symbol-black" fill-rule="nonzero" fill="#000000">
            <g id="logo-symbol-black" transform="translate(54.000000, 62.000000)">
                <path d="M7.46666667,18.0213188 L7.46666667,37.9786812 L28.1189567,48.6764437 C28.0663302,48.6491835 28.0331669,48.6263821 28.0130983,48.60804 C27.966835,48.6263862 27.9336662,48.6491853 27.8810433,48.6764437 L48.5333333,37.9786812 L48.5333333,18.0213188 L27.8810433,7.32355633 C27.9336698,7.35081654 27.9668331,7.37361792 27.9869017,7.39195999 C28.033165,7.37361384 28.0663338,7.35081467 28.1189567,7.32355633 L7.46666667,18.0213188 Z M24.6780782,0.713071151 C26.5127249,-0.23726488 29.4856324,-0.238115793 31.3219218,0.713071151 L52.6780782,11.7754322 C54.5127249,12.7257682 56,15.1811241 56,17.2290281 L56,38.7709719 C56,40.8325737 54.5143676,43.2733809 52.6780782,44.2245678 L31.3219218,55.2869288 C29.4872751,56.2372649 26.5143676,56.2381158 24.6780782,55.2869288 L3.32192183,44.2245678 C1.48727506,43.2742318 1.49213975e-14,40.8188759 1.32634644e-14,38.7709719 L0,17.2290281 C-1.65793305e-15,15.1674263 1.48563235,12.7266191 3.32192183,11.7754322 L24.6780782,0.713071151 Z" id="polygon"></path>
            </g>
        </g>
    </g>
</svg>